<svg xmlns="http://www.w3.org/2000/svg" viewBox="0 0 200 270" role="img" aria-label="Desenho: Binóculo">
<defs>
<marker id="fz-seta" viewBox="0 0 10 10" refX="7" refY="5" markerWidth="4.5" markerHeight="4.5" orient="auto"><path d="M0 0 L10 5 L0 10 Z" fill="var(--jade, #1f5a4e)"/></marker>
<marker id="fz-seta-i" viewBox="0 0 10 10" refX="3" refY="5" markerWidth="4.5" markerHeight="4.5" orient="auto"><path d="M10 0 L0 5 L10 10 Z" fill="var(--jade, #1f5a4e)"/></marker>
</defs>
<g fill="none" stroke="var(--ink, #15302b)" stroke-width="1.7" stroke-linecap="round" opacity="0.85"><path d="M80 194 L78 240 C66 246 44 250 22 260"/><path d="M120 194 L122 240 C134 246 156 250 178 260"/><path d="M70 254 C82 250 92 252 99 256" opacity="0.5"/><path d="M130 254 C118 250 108 252 101 256" opacity="0.5"/></g><g><g fill="none" stroke="var(--ink, #15302b)" stroke-width="1.7" stroke-linecap="round" stroke-linejoin="round">
<path d="M100 28 C62 28 42 58 42 100 C42 122 45 140 52 156 C60 176 78 196 100 200 C122 196 140 176 148 156 C155 140 158 122 158 100 C158 58 138 28 100 28 Z"/>
<path d="M43 104 C35 104 33 126 45 130"/><path d="M157 104 C165 104 167 126 155 130"/>
<path d="M60 60 C74 44 96 40 112 44 C128 48 140 58 146 72" opacity="0.4"/>
<path d="M100 100 C99 114 95 126 96 132 C98 136 104 136 106 133"/>
<path d="M62 82 C70 75 82 75 88 79"/><path d="M112 79 C118 75 130 75 138 82"/><ellipse cx="76" cy="103" rx="11" ry="8"/><circle cx="76" cy="103" r="3.2" fill="var(--ink, #15302b)" stroke="none"/><ellipse cx="124" cy="103" rx="11" ry="8"/><circle cx="124" cy="103" r="3.2" fill="var(--ink, #15302b)" stroke="none"/><path d="M86 157 C92 153 97 154 100 155 C103 154 108 153 114 157"/><path d="M89 158 C95 164 105 164 111 158" opacity="0.6"/></g><g transform="translate(94 112) rotate(0)"><rect x="-4.6" y="-1" width="9.2" height="30" rx="4.6" fill="var(--quartz-soft, #f5e1dd)" stroke="var(--rose-ink, #9a4a42)" stroke-width="1.3"/><path d="M-2.4 2.5 C-1.5 5.5 1.5 5.5 2.4 2.5" stroke="var(--rose-ink, #9a4a42)" stroke-width="1" fill="none" opacity="0.7"/></g><g transform="translate(72 84) rotate(100)"><rect x="-4.6" y="-1" width="9.2" height="34" rx="4.6" fill="var(--quartz-soft, #f5e1dd)" stroke="var(--rose-ink, #9a4a42)" stroke-width="1.3"/><path d="M-2.4 2.5 C-1.5 5.5 1.5 5.5 2.4 2.5" stroke="var(--rose-ink, #9a4a42)" stroke-width="1" fill="none" opacity="0.7"/></g><g transform="translate(106 112) rotate(0)"><rect x="-4.6" y="-1" width="9.2" height="30" rx="4.6" fill="var(--quartz-soft, #f5e1dd)" stroke="var(--rose-ink, #9a4a42)" stroke-width="1.3"/><path d="M-2.4 2.5 C-1.5 5.5 1.5 5.5 2.4 2.5" stroke="var(--rose-ink, #9a4a42)" stroke-width="1" fill="none" opacity="0.7"/></g><g transform="translate(128 84) rotate(-100)"><rect x="-4.6" y="-1" width="9.2" height="34" rx="4.6" fill="var(--quartz-soft, #f5e1dd)" stroke="var(--rose-ink, #9a4a42)" stroke-width="1.3"/><path d="M-2.4 2.5 C-1.5 5.5 1.5 5.5 2.4 2.5" stroke="var(--rose-ink, #9a4a42)" stroke-width="1" fill="none" opacity="0.7"/></g></g><g><rect x="101.35999999999999" y="4" width="94.64000000000001" height="21" rx="10.5" fill="var(--jade-soft, #d5e6df)"/><text x="148.68" y="17.5" text-anchor="middle" font-family="Manrope, Arial, sans-serif" font-size="12" font-weight="700" fill="var(--jade, #1f5a4e)">testa parada</text></g></svg>